<?xml version="1.0" encoding="UTF-8" standalone="no"?>
<!-- Generator: Adobe Illustrator 19.0.0, SVG Export Plug-In . SVG Version: 6.00 Build 0)  -->

<svg
   version="1.1"
   id="Layer_1"
   x="0px"
   y="0px"
   viewBox="0 0 512 512"
   style="enable-background:new 0 0 512 512;"
   xml:space="preserve"
   sodipodi:docname="bird_1.svg"
   inkscape:version="1.2.2 (b0a8486541, 2022-12-01)"
   xmlns:inkscape="http://www.inkscape.org/namespaces/inkscape"
   xmlns:sodipodi="http://sodipodi.sourceforge.net/DTD/sodipodi-0.dtd"
   xmlns="http://www.w3.org/2000/svg"
   xmlns:svg="http://www.w3.org/2000/svg"><defs
   id="defs84">
	
	
	
	
	
	
	
	
	
	
	
</defs><sodipodi:namedview
   id="namedview82"
   pagecolor="#ffffff"
   bordercolor="#000000"
   borderopacity="0.25"
   inkscape:showpageshadow="2"
   inkscape:pageopacity="0.0"
   inkscape:pagecheckerboard="0"
   inkscape:deskcolor="#d1d1d1"
   showgrid="false"
   inkscape:zoom="1.1951005"
   inkscape:cx="138.48208"
   inkscape:cy="281.1479"
   inkscape:window-width="1536"
   inkscape:window-height="791"
   inkscape:window-x="0"
   inkscape:window-y="0"
   inkscape:window-maximized="1"
   inkscape:current-layer="Layer_1" />
<style
   type="text/css"
   id="style67">
	.st0{fill:#eee;}
	.st1{fill:#eee;}
	.st2{fill:#eee;}
	.st3{fill:#eee;}
	.st4{fill:#eee;}
	.st5{fill:#eee;}
	.st6{fill:#eee;}
	.st7{fill:#eee;}
	.st8{fill:#eee;}
	.st9{fill:#eee;}
	.st10{fill:#eee;}
	.st11{fill:#eee;}
	.st12{fill:#eee;}
</style>
<path
   id="XMLID_9_-3"
   class="st5"
   d="m 352.06073,248.00414 c 0.20556,-1.11254 -0.0426,-2.88412 -0.23398,-4.57332 -2.50165,-7.8684 -6.14157,-15.80321 -11.01713,-22.8876 -22.67703,-32.95076 -67.62494,-46.93268 -109.63932,-33.19212 -32.51349,10.96511 -57.1564,34.60125 -68.03927,65.88403 -0.20557,1.11253 -0.86449,1.56609 -0.41091,2.22512 l -0.71104,10.07941 c 19.71023,21.76066 43.61797,32.86341 68.01964,32.33663 43.51436,-0.44844 84.12803,-24.5146 119.78312,-46.26072 0.65902,-0.45354 1.31804,-0.90708 1.97706,-1.36063 z"
   style="fill:#eee;fill-opacity:1" /><path
   id="XMLID_11_-6"
   class="st7"
   d="m 180.41194,235.76304 c 22.33373,-37.28974 65.39479,-57.32383 104.19517,-47.60113 6.11106,1.53132 12.70667,4.0088 18.42882,7.09214 0.38891,-1.55201 0.75351,-3.00702 1.14242,-4.55904 0.19445,-0.77601 0.3889,-1.55201 0.58336,-2.32802 l -1.16311,-1.94093 c -0.58155,-0.97046 -1.93911,-2.13537 -3.19967,-3.27598 -7.07972,-4.24826 -15.0572,-7.79365 -23.39928,-9.88403 -38.80037,-9.7227 -81.76398,9.51107 -104.19516,47.60113 -17.13932,29.72547 -19.99564,63.75166 -7.47336,94.41503 0.58155,0.97046 0.3871,1.74647 1.16311,1.94092 l 2.25352,3.76054 c -7.40599,-28.45349 -3.75116,-59.08374 11.66418,-85.22063 z"
   style="enable-background:new 0 0 512 512;fill:#eee;fill-opacity:1" /><path
   id="XMLID_7_"
   class="st3"
   d="m 191.63172,329.91385 v 0 C 135.76186,323.80615 72.154555,308.54733 8.0231791,286.04651 3.0488156,284.44808 1.3112178,281.16012 4.122821,278.36949 c 2.8116031,-2.79063 9.495892,-4.16917 16.17753,-3.43874 93.827269,10.25722 150.492289,-22.37194 205.449999,-54.13311 49.72874,-28.70749 103.29714,-58.04987 180.34924,-49.62652 40.23198,4.39817 79.27814,19.01532 102.40142,32.41909 -5.54434,-0.6061 -24.56115,-0.64166 -30.67546,-0.25545 -28.40086,-0.007 -42.43119,20.21128 -59.55813,43.71615 -18.23126,25.42749 -39.16758,53.72318 -86.85813,72.83218 -33.10844,12.39787 -81.77526,16.3716 -139.77757,10.03076 z"
   style="fill:#eee;fill-opacity:1;stroke-width:0.968017" /><path
   id="XMLID_9_"
   class="st5"
   d="m 351.95116,308.00136 c 1.46278,-0.28094 2.95414,-1.16156 4.44194,-1.9672 4.585,-4.96553 7.58162,-10.81432 7.88921,-17.26073 1.43069,-29.98327 -49.41301,-69.31142 -124.9757,-95.57361 -58.82233,-20.19346 -119.43248,-29.49704 -167.998153,-25.44267 -1.462759,0.28094 -2.896908,-0.0378 -2.925531,0.56188 l -11.576464,3.41174 c 5.950641,23.36662 29.160698,45.72077 65.252148,63.89265 63.84673,32.5973 148.16766,53.76087 222.84028,72.09844 1.43416,0.31873 2.86831,0.63745 4.30246,0.95617 z"
   style="fill:#eee;fill-opacity:1;stroke-width:1.16534" /><path
   id="XMLID_10_"
   class="st6"
   d="m 354.52645,308.11429 c 1.46277,-0.28094 2.95413,-1.16155 4.44193,-1.9672 4.52778,-3.76619 6.03303,-8.73438 7.72111,-13.73768 -88.09043,-33.28853 -202.83821,-73.63768 -247.33012,-124.58373 -15.52795,-1.10259 -31.295988,-0.97073 -45.472062,-0.0305 -1.462759,0.28094 -2.896891,-0.0378 -2.925518,0.56187 l -11.57646,3.41175 c 4.770438,17.72586 18.28883,34.36574 40.397371,49.43006 v 0 c 2.782449,2.43645 6.851969,4.47715 11.097169,6.63265 l 1.40555,0.9184 c 4.2452,2.1555 8.31472,4.19621 11.12579,6.03298 63.84674,32.5973 148.16765,53.76088 222.84029,72.09845 1.43415,0.31872 2.86828,0.63744 4.30244,0.95617 z"
   style="fill:#eee;fill-opacity:1;stroke-width:1.16534" /><path
   id="XMLID_11_"
   class="st7"
   d="m 220.1596,194.5109 c 74.12496,26.01842 126.40638,65.59033 124.9757,95.57362 -0.22532,4.72237 -1.90984,9.65071 -5.00346,13.73563 2.86828,0.63745 5.5573,1.23506 8.4256,1.87251 1.43415,0.31872 2.86829,0.63744 4.30244,0.95617 l 2.92553,-0.56188 c 1.46276,-0.28094 2.95412,-1.16155 4.44192,-1.9672 4.58501,-4.96552 7.58162,-10.81432 7.88922,-17.26073 1.43068,-29.98327 -49.41301,-69.31142 -124.97571,-95.5736 -58.82233,-20.19347 -119.43248,-29.49705 -167.998151,-25.44268 -1.462759,0.28094 -2.896908,-0.0378 -2.925514,0.56189 l -5.668199,1.08864 c 46.755534,-0.29023 101.751134,8.97762 153.610624,27.01763 z"
   style="fill:#eee;fill-opacity:1;stroke-width:1.16534" /><path
   id="XMLID_12_"
   class="st8"
   d="m 76.368951,166.7213 c -1.462759,0.28093 -2.896912,-0.0378 -2.925518,0.56187 l -5.668198,1.08865 c 18.5107,-0.65863 38.369715,0.80047 58.175065,3.38394 -1.37692,-1.51806 -4.16295,-3.87955 -5.33198,-5.95743 -15.73941,-0.4678 -30.041107,-0.69184 -44.249369,0.92297 z"
   style="fill:#eee;fill-opacity:1;stroke-width:1.16534" /><path
   id="XMLID_13_"
   class="st8"
   d="m 357.0367,306.44079 c 1.46277,-0.28094 2.95413,-1.16155 4.44193,-1.9672 4.52778,-3.76619 6.03303,-8.73438 7.72111,-13.73768 -8.36838,-3.07185 -16.74033,-6.06873 -25.10872,-9.14056 1.29465,3.24209 1.1802,5.64075 1.0407,8.56412 -0.22532,4.72237 -1.90984,9.65072 -5.00346,13.73564 2.86828,0.63745 5.55732,1.23506 8.4256,1.87251 1.43415,0.31872 2.8683,0.63744 4.30245,0.95617 z"
   style="fill:#eee;fill-opacity:1;stroke-width:1.16534" />
</svg>
