<?xml version="1.0" encoding="utf-8"?>
<!-- Generator: Adobe Illustrator 19.0.0, SVG Export Plug-In . SVG Version: 6.00 Build 0)  -->
<svg version="1.1" id="Layer_1" xmlns="http://www.w3.org/2000/svg" xmlns:xlink="http://www.w3.org/1999/xlink" x="0px" y="0px"
	 viewBox="0 0 512 512" style="enable-background:new 0 0 512 512;" xml:space="preserve">
<style type="text/css">
	.st0{fill:#E08D2D;}
	.st1{fill:#FFFFFF;}
</style>
<g id="XMLID_1_">
	<circle id="XMLID_3_" class="st0" cx="256" cy="256" r="256"/>
	<path id="XMLID_7_" class="st1" d="M191.8,206.7c-4.7,0-9.3,0-14,0.9v28.9c4.7-0.9,9.3-0.9,14-0.9c47.5,0,85.6,38.2,85.6,85.6
		c0,4.7-0.9,9.3-0.9,14h28.9c0.9-4.7,0.9-9.3,0.9-14C305.3,257.9,254.1,206.7,191.8,206.7z M191.8,148c-4.7,0-9.3,0-14,0.9v28.9
		c4.7-0.9,9.3-0.9,14-0.9c79.1,0,144.3,64.2,144.3,144.3c0,4.7,0,9.3-0.9,14H364c0-4.7,0.9-9.3,0.9-14
		C364,225.3,286.7,148,191.8,148z M191.8,275.5c-24.2,0-44.7,19.5-44.7,44.7s19.5,44.7,44.7,44.7s44.7-19.5,44.7-44.7
		S216.9,275.5,191.8,275.5z"/>
</g>
</svg>
