<?xml version="1.0" encoding="UTF-8" standalone="no"?>
<!DOCTYPE svg PUBLIC "-//W3C//DTD SVG 1.1//EN" "http://www.w3.org/Graphics/SVG/1.1/DTD/svg11.dtd">
<svg width="100%" height="100%" viewBox="0 0 6000 964" version="1.1" xmlns="http://www.w3.org/2000/svg" xmlns:xlink="http://www.w3.org/1999/xlink" xml:space="preserve" xmlns:serif="http://www.serif.com/" style="fill-rule:evenodd;clip-rule:evenodd;stroke-linejoin:round;stroke-miterlimit:2;"><g transform="matrix(1 0 0 1 1517.96 0)"><g transform="matrix(1 0 0 1 1000 0)"><path d="M850.662 877.56C849.892 877.697 846.29 878.342 840.436 879.391C609.568 920.77 567.099 927.875 562.333 928.428C550.963 929.747 542.469 929.079 536.357 926.386C532.539 924.704 530.471 922.662 529.919 921.763C530.187 920.166 532.218 916.358 533.458 914.033C534.665 911.77 536.032 909.207 537.23 906.475C545.175 888.345 539.616 869.954 522.72 858.476C510.121 849.919 493.416 846.446 473.054 848.151C460.899 849.17 247.836 884.889 130.801 904.588L73.356 949.763C207.324 927.151 462.549 884.33 475.978 883.028C487.974 882.021 497.333 883.545 503.052 887.428C506.373 889.685 506.046 890.431 505.172 892.425C504.516 893.922 503.573 895.689 502.576 897.56C498.741 904.749 493.489 914.594 495.228 926.789C497.135 940.163 506.981 951.69 522.242 958.415C530.822 962.195 540.669 964.069 552.088 964.069C556.596 964.069 561.349 963.777 566.364 963.195C575.547 962.13 669.835 945.525 846.608 913.841C852.429 912.798 856.011 912.155 856.777 912.02C866.293 910.332 872.638 901.248 870.949 891.731C869.26 882.214 860.183 875.87 850.662 877.56Z" style="fill:#fff;fill-rule:nonzero;stroke:#fff;stroke-width:2px;"/></g><g transform="matrix(1 0 0 1 1000 0)"><path d="M231.14 707.501L82.479 863.005C66.106 880.132 54.573 901.299 49.06 924.343L260.147 758.342C326.228 787.645 379.013 796.979 419.467 796.979C490.54 796.979 523.532 768.153 523.532 768.153C457.368 733.723 447.94 669.467 447.94 669.467C498.615 690.891 604.175 716.145 604.175 716.145C744.361 622.582 817.625 420.007 817.625 420.007C803.11 423.997 789.23 425.659 776.15 425.659C710.355 425.659 665.15 383.529 665.15 383.529L848.294 343.644C909.186 218.71 915.01 0 915.01 0L358.176 495.258C295.116 551.344 250.776 625.424 231.14 707.501Z" style="fill:#fff;fill-rule:nonzero;stroke:#fff;stroke-width:2px;"/></g><g transform="matrix(1.77562 0 0 1 -1678.05 0)"><g transform="matrix(0.563184 -0 -0 1 90.157 -0)"/><path d="M114.839 482L1535.87 482" style="fill:none;stroke:url(#_Linear1);stroke-width:13.88px;stroke-linecap:round;stroke-miterlimit:1.5;"/></g><g transform="matrix(1.77562 0 0 1 1711.1 0)"><g transform="matrix(0.563184 -0 -0 1 -1818.56 0)"/><path d="M114.839 482L1535.87 482" style="fill:none;stroke:url(#_Linear2);stroke-width:13.88px;stroke-linecap:round;stroke-miterlimit:1.5;"/></g></g><defs><linearGradient id="_Linear1" x1="0" y1="0" x2="1" y2="0" gradientUnits="userSpaceOnUse" gradientTransform="matrix(1421.03 0 0 1421.03 114.839 482)"><stop offset="0" style="stop-color:#fff;stop-opacity:0"/><stop offset="1" style="stop-color:#fff;stop-opacity:1"/></linearGradient><linearGradient id="_Linear2" x1="0" y1="0" x2="1" y2="0" gradientUnits="userSpaceOnUse" gradientTransform="matrix(1421.03 0 0 1421.03 114.839 482)"><stop offset="0" style="stop-color:#fff;stop-opacity:1"/><stop offset="1" style="stop-color:#fff;stop-opacity:0"/></linearGradient></defs></svg>